/* XPM */
static char *result[] = {
/* columns rows colors chars-per-pixel */
"32 32 3 1 ",
"  c #222222",
". c #483B3A",
"X c #775C55",
/* pixels */
"XXXX  XXXXXXXXXXXX  XXXXXX  XXXX",
"XXXX  XXXXXXXXXXXX  XXXXXX  XXXX",
"....  ............  ......  ....",
"....  ............  ......  ....",
"....  ....  ......  ....    ....",
"....  ....  ......  ....    ....",
"                                ",
"                                ",
"XX  XXXX  XXXXXXXXXXXX  XXXXXXXX",
"XX  XXXX  XXXXXXXXXXXX  XXXXXXXX",
"........  ............  ........",
"........  ............  ........",
"........  ............  ..  ....",
"........  ............  ..  ....",
"                                ",
"                                ",
"XXXXXXXXXXXXXX  XXXXXXXXXXXX    ",
"XXXXXXXXXXXXXX  XXXXXXXXXXXX    ",
"..............  ............  ..",
"..............  ............  ..",
"......  ......  ............  ..",
"......  ......  ............  ..",
"                                ",
"                                ",
"XXXX  XXXXXXXXXXXXXX  XXXXXXXXXX",
"XXXX  XXXXXXXXXXXXXX  XXXXXXXXXX",
"....  ..............  ..........",
"....  ..............  ..........",
"....  ..........  ..  ..  ......",
"....  ..........  ..  ..  ......",
"                                ",
"                                "
};
