/* XPM */
static char *result[] = {
/* columns rows colors chars-per-pixel */
"32 32 6 1 ",
"  c #222222",
". c #483B3A",
"X c #62232F",
"o c #775C55",
"O c #8F4029",
"+ c #C56025",
/* pixels */
"      ..        ......  ..      ",
"      ..        ......  ..      ",
"  ............................oo",
"  ............................oo",
"..............................oo",
"..............................oo",
"..............................oo",
"..............................oo",
"  ......++oooooooooooo++......oo",
"  ......++oooooooooooo++......oo",
"....oooo++  ++++++++oo++oooo..oo",
"....oooo++  ++++++++oo++oooo..oo",
"  oooo  ++            ++oo  oo..",
"  oooo  ++            ++oo  oo..",
"    oo  ++  ++++++++  ++      oo",
"    oo  ++  ++++++++  ++      oo",
"        OO            OO      ..",
"        OO            OO      ..",
"..      OO  OOOOOOOO  OO      ..",
"..      OO  OOOOOOOO  OO      ..",
"..oo    XX            XX    oooo",
"..oo    XX            XX    oooo",
"  ..ooooXX  XXXXXXXX  XXoooo....",
"  ..ooooXX  XXXXXXXX  XXoooo....",
"  ......oooooooooooooooo........",
"  ......oooooooooooooooo........",
"  ............................oo",
"  ............................oo",
"  ............................oo",
"  ............................oo",
"oooooo....oo..oooooooo..oooooooo",
"oooooo....oo..oooooooo..oooooooo"
};
