/* XPM */
static char *result[] = {
/* columns rows colors chars-per-pixel */
"32 32 4 1 ",
"  c #222222",
". c #483B3A",
"X c #775C55",
"o c #C56025",
/* pixels */
"      ..        ......  ..      ",
"      ..        ......  ..      ",
"  ............................XX",
"  ............................XX",
"..............................XX",
"..............................XX",
"..............................XX",
"..............................XX",
"  ......XXXXXXXXXXXXXXXX......XX",
"  ......XXXXXXXXXXXXXXXX......XX",
"....XXXX  XX    XX  XXXXXXXX..XX",
"....XXXX  XX    XX  XXXXXXXX..XX",
"  XXXX    XX        XX  XX  XX..",
"  XXXX    XX        XX  XX  XX..",
"    XX              XX        XX",
"    XX              XX        XX",
"        oo            oo      ..",
"        oo            oo      ..",
"..      oo  oooooooo  oo      ..",
"..      oo  oooooooo  oo      ..",
"..XX    oo            oo    XXXX",
"..XX    oo            oo    XXXX",
"  ..XXXXoo  oooooooo  ooXXXX....",
"  ..XXXXoo  oooooooo  ooXXXX....",
"  ......XXXXXXXXXXXXXXXX........",
"  ......XXXXXXXXXXXXXXXX........",
"  ............................XX",
"  ............................XX",
"  ............................XX",
"  ............................XX",
"XXXXXX....XX..XXXXXXXX..XXXXXXXX",
"XXXXXX....XX..XXXXXXXX..XXXXXXXX"
};
