/* XPM */
static char *result[] = {
/* columns rows colors chars-per-pixel */
"32 32 3 1 ",
"  c #222222",
". c #483B3A",
"X c #775C55",
/* pixels */
"      ..        ......  ..      ",
"      ..        ......  ..      ",
"  ............................XX",
"  ............................XX",
"..............................XX",
"..............................XX",
"..............................XX",
"..............................XX",
"  ......XXXXXXXXXXXXXXXX......XX",
"  ......XXXXXXXXXXXXXXXX......XX",
"....XXXX  XX    XX  XXXXXXXX..XX",
"....XXXX  XX    XX  XXXXXXXX..XX",
"  XXXX    XX        XX  XX  XX..",
"  XXXX    XX        XX  XX  XX..",
"    XX              XX        XX",
"    XX              XX        XX",
"                              ..",
"                              ..",
"..                            ..",
"..                            ..",
"..XX                        XXXX",
"..XX                        XXXX",
"  ..XXXX                XXXX....",
"  ..XXXX                XXXX....",
"  ......XXXXXXXXXXXXXXXX........",
"  ......XXXXXXXXXXXXXXXX........",
"  ............................XX",
"  ............................XX",
"  ............................XX",
"  ............................XX",
"XXXXXX....XX..XXXXXXXX..XXXXXXXX",
"XXXXXX....XX..XXXXXXXX..XXXXXXXX"
};
