/* XPM */
static char *result[] = {
/* columns rows colors chars-per-pixel */
"32 32 4 1 ",
"  c #222222",
". c #483B3A",
"X c #775C55",
"o c #FDF7ED",
/* pixels */
"      ..        ......  ..      ",
"      ..        ......  ..      ",
"  ..................    XX....XX",
"  ..................    XX....XX",
"........................  ....XX",
"........................  ....XX",
"..XXXX........................XX",
"..XXXX.......ooooo............XX",
"      .......ooooo............XX",
"      .......ooooo............XX",
"..........ooooooooooo.........XX",
"..........ooooooooooo.........XX",
"  ........ooooooooooo...........",
"  ........ooooooooooo...........",
"  ........ooooooooooo.........XX",
"  ........ooooooooooo.........XX",
"  ........ooooooooooo...........",
"  ........ooooooooooo...........",
"..........ooooooooooo.........XX",
"..........ooooooooooo.........XX",
"..........ooooooooooo.........XX",
"..........ooooooooooo.........XX",
"  ...........oooooXX............",
"  ...........oooooXX............",
"  ...........ooooo  ............",
"  ............XX    ............",
"  ............  ..............XX",
"  ............  ..............XX",
"  ............  ..............XX",
"  ............  ..............XX",
"XXXXXX....XX..XXXXXXXX..XXXXXXXX",
"XXXXXX....XX..XXXXXXXX..XXXXXXXX"
};
