/* XPM */
static char *result[] = {
/* columns rows colors chars-per-pixel */
"32 32 5 1 ",
"  c #222222",
". c #483B3A",
"X c #775C55",
"o c #EE8E2E",
"O c #FACB3E",
/* pixels */
"      ..        ......  ..      ",
"      ..        ......  ..      ",
"  ..................    XX....XX",
"  ..................    XX....XX",
"........................  ....XX",
"........................  ....XX",
"..XXXX........................XX",
"..XXXX.......OOooo............XX",
"      .......OOooo............XX",
"      .......OOooo............XX",
".............OOooo............XX",
".............OOooo............XX",
"  ...........OOooo..............",
"  ...........OOooo..............",
"  ...........OOooo............XX",
"  ...........OOooo............XX",
"  ...........OOooo..............",
"  ...........OOooo..............",
".............OOooo............XX",
".............OOooo............XX",
".............OOooo............XX",
".............OOooo............XX",
"  ...........OOoooXX............",
"  ...........OOoooXX............",
"  ...........OOooo  ............",
"  ............XX    ............",
"  ............  ..............XX",
"  ............  ..............XX",
"  ............  ..............XX",
"  ............  ..............XX",
"XXXXXX....XX..XXXXXXXX..XXXXXXXX",
"XXXXXX....XX..XXXXXXXX..XXXXXXXX"
};
