/* XPM */
static char *result[] = {
/* columns rows colors chars-per-pixel */
"32 32 8 1 ",
"  c #222222",
". c #483B3A",
"X c #62232F",
"o c #314152",
"O c #3D734F",
"+ c #775C55",
"@ c #8F4029",
"# c #FDF7ED",
/* pixels */
"      ..  ......        ..      ",
"      ..  ......        ..      ",
"++....++    ..................  ",
"++....++           ...........  ",
"++....   OOOOOOOOOo ............",
"++....   OOOOOOOOOo ............",
"++...... OOOOOOOOOo ......++++..",
"++...... ooooooooOo   . ..++++..",
"++......  OOOO  OOo X  ...      ",
"++.....   OOOO  OOo X o .       ",
"++..... #oOOOOoo#Oo X  o .......",
"++..... ##OOOOO## o X Oo  ......",
"....... ##     ##oo X Oo .....  ",
"....... OOOOOOOOoo  X oo  ....  ",
"++.....  ooooooooo @X Oo .....  ",
"++..... o          @X oo .....  ",
"....... OOOOOOOOO @X Ooo .....  ",
"....... OooOOOO  @@X OOo .....  ",
"++..... OOOOO  @@@X OOoo .......",
"++..... OOO  @@@@X OOooo .......",
"++....     @@@@@@@X       ......",
"++.... @@@@@@@@@@@@@@XXXX ......",
"...... @@@@@@@@@@@@@@@XXX ....  ",
"...... X@@@@@@@@@@@@@XXXX ....  ",
"...... XXX@X@@@@@@@@@@@XX ....  ",
"...... X@@@@@@@@@@@@@@XXX ....  ",
"++.... XX@@@@@@@@@@@@X@XX ....  ",
"++....   XXX        XXX   ....  ",
"++......     ...  .     ......  ",
"++..............  ............  ",
"++++++++..++++++++..++....++++++",
"++++++++..++++++++..++....++++++"
};
