/* XPM */
static char *result[] = {
/* columns rows colors chars-per-pixel */
"32 32 8 1 ",
"  c #222222",
". c #483B3A",
"X c #62232F",
"o c #314152",
"O c #3D734F",
"+ c #775C55",
"@ c #8F4029",
"# c #FDF7ED",
/* pixels */
"      ..        ......  ..      ",
"      ..        ......  ..      ",
"  ..................    ++....++",
"  ..................    ++....++",
".............          .  ....++",
"............ oOOOOOOOOO   ....++",
"..++++...... oOOOOOOOOO ......++",
"..++++...... oOOOOOOOOO ......++",
"      ...... oOoooooooo ......++",
"      .. .   oOO  OOOO  ......++",
".........  X oOO  OOOO  ......++",
"...... . o X oO#ooOOOOo# .....++",
"  ..... o  X o ##OOOOO## .......",
"  ....  oO X oo##     ## .......",
"  ..... oO X  ooOOOOOOOO .....++",
"  ....  oo X@ ooooooooo  .....++",
"  ..... oO X@          o .......",
"  ..... oo X@ oooooooooo .......",
"....... ooO X@ OOOOOOOOO .....++",
"....... oOO X@@  OOOOooO .....++",
"....... ooOO X@@@  OOOOO .....++",
"....... oooOO X@@@@  OOO .....++",
"  ....       X@@@@@@@     ......",
"  .... XXXX@@@@@@@@@@@@@@ ......",
"  .... XXX@@@@@@@@@@@@@@@ ......",
"  .... XXXX@@@@@@@@@@@@@X ......",
"  .... XX@@@@@@@@@@@X@XXX ....++",
"  .... XXX@@@@@@@@@@@@@@X ....++",
"  .... XX@X@@@@@@@@@@@@XX ....++",
"  ....   XXX        XXX   ....++",
"++++++....++..++++++++..++++++++",
"++++++....++..++++++++..++++++++"
};
