/* XPM */
static char *result[] = {
/* columns rows colors chars-per-pixel */
"32 32 8 1 ",
"  c #222222",
". c #483B3A",
"X c #62232F",
"o c #314152",
"O c #3D734F",
"+ c #775C55",
"@ c #8F4029",
"# c #FDF7ED",
/* pixels */
"      ..        ......  ..      ",
"      ..        ......  ..      ",
"  ..................    ++....++",
"  ..................    ++....++",
"........................  ....++",
".............          .  ....++",
"..++++...... oOOOOOOOOO ......++",
"..++++...... oOOOOOOOOO ......++",
"      ...... oOOOOOOOOO ......++",
"      .. .   oOoooooooo ......++",
".........  X oOO  OOOO  ......++",
"...... . o X oOO  OOOO   .....++",
"  ..... o  X oO#ooOOOOo# .......",
"  ....  oO X o ##OOOOO## .......",
"  ..... oO X oo##     ## .....++",
"  ....  oo X  ooOOOOOOOO .....++",
"  ..... oO X@ ooooooooo  .......",
"  ..... oo X@          o .......",
"....... ooO X@ OOOOOOOOO .....++",
"....... oOO X@@  OOOOooO .....++",
"....... ooOO X@@@ OOOOOO .....++",
"....... oooOO @@@@ OOOOO .....++",
"  ..... oooOO X@@@@ OOOO .......",
"  ....       X@@@@@@@     ......",
"  .... XXX@@@@@@@@@@@@@@@ ......",
"  .... XXXX@@@@@@@@@@@@@X ......",
"  .... XX@@@@@@@@@@@X@XXX ....++",
"  .... XXX@@@@@@@@@@@@@@X ....++",
"  .... XX@X@@@@@@@@@@@@XX ....++",
"  ....   XXX        XXX   ....++",
"++++++....++..++++++++..++++++++",
"++++++....++..++++++++..++++++++"
};
